# xmcd
#
# Track frame offsets: 
#        150
#        14688
#        30346
#        44034
#        61784
#        78505
#        93908
#        106034
#        120610
#        135462
#
# Disc length: 2135 seconds
#
# Revision: 1
# Processed by: cddbd v1.5.2PL0 Copyright (c) Steve Scherf et al.
# Submitted via: ExactAudioCopy v0.99pb5
#
DISCID=7608550a
DTITLE=Orquesta Revolucion '70 - Y Sigue El Ritmo
DYEAR=1972
DGENRE=Salsa
TTITLE0=Los Carreteros
TTITLE1=No Dejes Que Te Coman El Cerebro
TTITLE2=Le Dije A Una Rosa
TTITLE3=La Gente Necesita Amor
TTITLE4=El Quinqué
TTITLE5=Tiene Saoco
TTITLE6=Rumba Moderna
TTITLE7=Un Volver A Empezar
TTITLE8=Rumbon Caliente
TTITLE9=El Buen Ejemplo
EXTD=YEAR: 1972
EXTT0=
EXTT1=
EXTT2=
EXTT3=
EXTT4=
EXTT5=
EXTT6=
EXTT7=
EXTT8=
EXTT9=
PLAYORDER=
